<svg data-v-423bf9ae="" xmlns="http://www.w3.org/2000/svg" viewBox="0 0 415 112" class="iconLeftSlogan"><!----><!----><!----><g data-v-423bf9ae="" id="183f9b17-17ca-411e-a003-7cc8e461275d" fill="#000000" transform="matrix(5.395683046021815,0,0,5.395683046021815,120.04714315911471,-16.294962219234236)"><path d="M2.58 12.99L2.58 3.78L1.48 3.78L1.48 14L7.84 14L7.84 12.99ZM12.35 6.58C10.30 6.58 8.72 8.19 8.72 10.33C8.72 12.50 10.26 14.14 12.36 14.14C14.03 14.14 15.29 13.06 15.53 11.76L14.53 11.76C14.32 12.66 13.47 13.23 12.36 13.23C10.92 13.23 9.86 12.15 9.74 10.63L15.57 10.63L15.67 10.54C15.85 8.41 14.36 6.58 12.35 6.58ZM9.79 9.74C10.04 8.39 11.10 7.48 12.33 7.48C13.62 7.48 14.52 8.48 14.66 9.76ZM20.30 6.58C18.58 6.58 17.36 7.56 17.26 9.02L18.26 9.02C18.31 8.18 19.11 7.49 20.26 7.49C21.55 7.49 22.30 8.16 22.30 9.67L22.30 9.94L20.03 9.93C18.12 9.93 16.97 10.79 16.97 12.01C16.97 13.27 18.02 14.14 19.36 14.14C20.65 14.14 21.67 13.55 22.43 12.96L22.64 14L23.32 14L23.32 9.67C23.32 7.70 22.23 6.58 20.30 6.58ZM18.00 12.00C18.00 11.19 18.72 10.79 20.05 10.79L22.30 10.79L22.30 12.11C21.55 12.70 20.59 13.22 19.57 13.22C18.72 13.22 18.00 12.78 18.00 12.00ZM28.55 3.96C29.02 3.96 29.37 4.06 29.75 4.19L29.86 3.30C29.44 3.14 28.92 3.02 28.39 3.02C27.05 3.02 26.32 3.72 26.32 5.22L26.32 6.72L24.74 6.72L24.74 7.62L26.32 7.62L26.32 14.08L27.37 14.08L27.37 7.62L29.72 7.62L29.72 6.72L27.37 6.72L27.37 5.22C27.37 4.30 27.76 3.96 28.55 3.96ZM32.48 12.99L32.48 3.78L31.39 3.78L31.39 14L37.74 14L37.74 12.99ZM41.89 6.58C40.17 6.58 38.95 7.56 38.85 9.02L39.84 9.02C39.90 8.18 40.70 7.49 41.85 7.49C43.13 7.49 43.89 8.16 43.89 9.67L43.89 9.94L41.62 9.93C39.70 9.93 38.56 10.79 38.56 12.01C38.56 13.27 39.61 14.14 40.95 14.14C42.24 14.14 43.26 13.55 44.02 12.96L44.23 14L44.91 14L44.91 9.67C44.91 7.70 43.82 6.58 41.89 6.58ZM39.59 12.00C39.59 11.19 40.31 10.79 41.64 10.79L43.89 10.79L43.89 12.11C43.13 12.70 42.18 13.22 41.16 13.22C40.31 13.22 39.59 12.78 39.59 12.00ZM51.00 6.58C49.81 6.58 48.89 6.99 48.26 7.78L48.26 3.08L47.26 3.08L47.26 14L47.98 14L48.19 12.87C48.82 13.69 49.71 14.14 50.99 14.14C52.98 14.14 54.60 12.46 54.60 10.33C54.60 8.23 52.96 6.58 51.00 6.58ZM50.92 13.23C49.64 13.23 48.80 12.61 48.30 11.61L48.30 9.10C48.78 8.13 49.63 7.49 50.92 7.49C52.30 7.49 53.54 8.72 53.54 10.33C53.54 11.96 52.32 13.23 50.92 13.23Z"></path></g><defs data-v-423bf9ae=""><linearGradient data-v-423bf9ae="" gradientTransform="rotate(25)" id="df27494c-1db5-41ee-a156-03c4b01fb8d3" x1="0%" y1="0%" x2="100%" y2="0%"><stop data-v-423bf9ae="" offset="0%" style="stop-color: rgb(1, 100, 139); stop-opacity: 1;"></stop><stop data-v-423bf9ae="" offset="100%" style="stop-color: rgb(91, 208, 164); stop-opacity: 1;"></stop></linearGradient></defs><g data-v-423bf9ae="" id="24964ff1-6aaa-40ce-aa24-10bdf27d828a" transform="matrix(1.1111168755425347,0,0,1.1111168755425347,-1.170330047387523,0.44386799980679825)" stroke="none" fill="url(#df27494c-1db5-41ee-a156-03c4b01fb8d3)"><path clip-rule="evenodd" d="M34.299 89.102C18.86 84.527-25.674 64.976 24.795 0c27.291 18.521 37.807 34.817 39.754 48.283-13.054 4.675-22.041 13.764-20.921 30.208-7.11-16.909-12.688-40.295-15.081-54.876-1.2 17.033 1.313 47.329 5.752 65.487z"></path><path clip-rule="evenodd" d="M51.772 93.184C48.014 82.738 40.207 48.778 98.54 50.65c1.712 53.348-26.544 51.379-39.376 47.778 5.312-10.34 12.15-19.672 20.803-27.551-10.615 5.877-20.068 13.332-28.195 22.307z"></path></g><!----><g data-v-423bf9ae="" id="0187939e-304d-4baa-9998-a414801bcabc" fill="#000000" transform="matrix(0.9570305339034373,0,0,0.9570305339034373,126.95131637349095,58.392188196629746)"><path d="M2.18 2.21L1.13 2.21L1.13 11.48L2.18 11.48ZM11.23 4.48L11.23 11.48L12.28 11.48L12.28 7.45C12.28 6.19 13.23 5.32 14.39 5.32C15.54 5.32 16.35 6.16 16.35 7.43L16.35 11.48L17.40 11.48L17.40 7.41C17.40 5.42 16.04 4.37 14.60 4.37C13.47 4.37 12.78 4.90 12.28 5.57L12.28 4.48ZM27.79 11.48L27.79 5.40L29.40 5.40L29.40 4.48L27.79 4.48L27.79 1.97L26.74 1.97L26.74 4.48L25.31 4.48L25.31 5.40L26.74 5.40L26.74 11.48ZM40.53 10.64C39.12 10.64 38.21 9.65 38.05 8.40L43.92 8.40L43.92 7.98C43.92 5.98 42.59 4.37 40.45 4.37C38.30 4.37 36.97 5.98 36.97 7.98C36.97 9.98 38.37 11.59 40.52 11.59C42.18 11.59 43.22 10.72 43.71 9.46L42.56 9.46C42.18 10.16 41.51 10.64 40.53 10.64ZM40.45 5.32C41.79 5.32 42.63 6.23 42.83 7.42L38.07 7.42C38.26 6.23 39.10 5.32 40.45 5.32ZM53.26 1.68L52.21 1.68L52.21 11.48L53.26 11.48ZM63.13 1.68L62.08 1.68L62.08 11.48L63.13 11.48ZM71.95 11.48L73.00 11.48L73.00 4.48L71.95 4.48ZM71.90 1.93L71.90 3.30L73.04 3.30L73.04 1.93ZM87.28 4.48L87.28 5.60C86.76 4.84 85.93 4.37 84.77 4.37C82.73 4.37 81.38 5.92 81.38 7.92C81.38 9.93 82.73 11.48 84.77 11.48C85.93 11.48 86.76 10.99 87.28 10.23L87.28 11.20C87.28 12.64 86.58 13.41 84.97 13.41C83.90 13.41 83.20 13.01 82.92 12.32L81.76 12.32C82.15 13.54 83.26 14.36 85.02 14.36C87.12 14.36 88.33 13.27 88.33 11.27L88.33 4.48ZM84.91 10.53C83.36 10.53 82.43 9.37 82.43 7.92C82.43 6.48 83.36 5.32 84.91 5.32C86.44 5.32 87.33 6.48 87.33 7.92C87.33 9.37 86.44 10.53 84.91 10.53ZM100.27 10.64C98.85 10.64 97.94 9.65 97.79 8.40L103.66 8.40L103.66 7.98C103.66 5.98 102.33 4.37 100.18 4.37C98.04 4.37 96.71 5.98 96.71 7.98C96.71 9.98 98.11 11.59 100.25 11.59C101.92 11.59 102.96 10.72 103.45 9.46L102.30 9.46C101.92 10.16 101.25 10.64 100.27 10.64ZM100.18 5.32C101.53 5.32 102.37 6.23 102.56 7.42L97.80 7.42C98 6.23 98.84 5.32 100.18 5.32ZM111.94 4.48L111.94 11.48L112.99 11.48L112.99 7.45C112.99 6.19 113.95 5.32 115.11 5.32C116.26 5.32 117.07 6.16 117.07 7.43L117.07 11.48L118.12 11.48L118.12 7.41C118.12 5.42 116.76 4.37 115.32 4.37C114.18 4.37 113.50 4.90 112.99 5.57L112.99 4.48ZM128.51 11.48L128.51 5.40L130.12 5.40L130.12 4.48L128.51 4.48L128.51 1.97L127.46 1.97L127.46 4.48L126.03 4.48L126.03 5.40L127.46 5.40L127.46 11.48ZM152.45 2.10C149.66 2.10 147.88 4.21 147.88 6.85C147.88 9.48 149.59 11.59 152.42 11.59C154.10 11.59 155.19 10.74 155.78 9.84L155.78 11.48L156.74 11.48L156.74 6.55L152.39 6.55L152.39 7.50L155.78 7.50C155.78 9.44 154.18 10.57 152.50 10.57C150.25 10.57 148.93 8.93 148.93 6.85C148.93 4.76 150.28 3.12 152.53 3.12C153.94 3.12 154.95 3.74 155.51 4.73L156.66 4.73C155.97 3.18 154.43 2.10 152.45 2.10ZM168.99 4.37C167.26 4.37 166.56 5.73 166.42 6.20L166.42 4.48L165.37 4.48L165.37 11.48L166.42 11.48L166.42 8.40C166.42 6.86 167.37 5.42 168.94 5.42L169.06 5.42L169.06 4.37ZM180.05 4.37C177.91 4.37 176.58 5.98 176.58 7.98C176.58 9.98 177.91 11.59 180.05 11.59C182.20 11.59 183.53 9.98 183.53 7.98C183.53 5.98 182.20 4.37 180.05 4.37ZM180.05 10.64C178.50 10.64 177.63 9.42 177.63 7.98C177.63 6.54 178.50 5.32 180.05 5.32C181.61 5.32 182.48 6.54 182.48 7.98C182.48 9.42 181.61 10.64 180.05 10.64ZM197.97 11.48L199.18 11.48L201.38 4.48L200.26 4.48L198.58 10.18L196.80 4.48L195.65 4.48L193.87 10.18L192.19 4.48L191.07 4.48L193.27 11.48L194.47 11.48L196.22 5.89ZM209.41 11.48L210.46 11.48L210.46 4.48L209.41 4.48ZM209.37 1.93L209.37 3.30L210.50 3.30L210.50 1.93ZM219.28 4.48L219.28 11.48L220.33 11.48L220.33 7.45C220.33 6.19 221.28 5.32 222.45 5.32C223.59 5.32 224.41 6.16 224.41 7.43L224.41 11.48L225.46 11.48L225.46 7.41C225.46 5.42 224.10 4.37 222.66 4.37C221.52 4.37 220.84 4.90 220.33 5.57L220.33 4.48ZM239.67 4.48L239.67 5.60C239.15 4.84 238.32 4.37 237.16 4.37C235.12 4.37 233.77 5.92 233.77 7.92C233.77 9.93 235.12 11.48 237.16 11.48C238.32 11.48 239.15 10.99 239.67 10.23L239.67 11.20C239.67 12.64 238.97 13.41 237.36 13.41C236.29 13.41 235.59 13.01 235.31 12.32L234.15 12.32C234.54 13.54 235.65 14.36 237.41 14.36C239.51 14.36 240.72 13.27 240.72 11.27L240.72 4.48ZM237.30 10.53C235.75 10.53 234.82 9.37 234.82 7.92C234.82 6.48 235.75 5.32 237.30 5.32C238.83 5.32 239.72 6.48 239.72 7.92C239.72 9.37 238.83 10.53 237.30 10.53Z"></path></g></svg>